<svg width="1183" height="577" viewBox="0 0 1183 577" fill="none" xmlns="http://www.w3.org/2000/svg">
<path d="M474.524 217.127L480.717 214.745L487.863 204.265V197.119L495.008 192.831L504.536 186.162L514.54 190.45L529.308 181.398L539.312 179.969L550.745 181.398L560.749 177.111L565.037 186.162L560.749 190.45L571.706 197.119H577.899L585.045 204.265L594.572 207.599L599.336 204.265V197.119H609.816L622.202 204.265H634.588H646.022L652.215 217.127L655.073 224.273L660.313 234.277L664.124 243.804V251.427L670.793 257.143L674.605 268.576L682.227 273.816L688.896 281.915L691.754 289.537L696.994 292.872L705.569 294.777L721.766 289.537V301.447L714.621 313.356L707.951 323.837L698.9 332.412L688.896 343.845L680.321 353.372L674.605 363.853L677.463 376.715L682.227 382.908V393.388V402.916L677.463 411.015L668.412 413.397L664.124 419.59L657.931 426.735L660.313 438.645L657.931 443.885L651.262 448.649L647.927 452.936V457.7L646.498 463.417L635.065 477.232L624.584 484.378L615.533 488.665L610.769 484.378L604.576 488.665H596.478L593.143 484.378V477.232L589.332 468.657L581.71 459.606V452.936L578.852 438.645L574.564 426.735L568.371 417.208V408.633L571.706 400.534L574.564 391.007V382.908V376.715L571.706 369.569L568.371 359.089L565.037 355.278L560.749 348.609V340.986V329.553V323.837L554.08 318.596H545.028L541.217 313.356L535.024 310.022L526.926 313.356L516.922 316.215H504.536L492.15 318.596L484.052 316.215L472.142 306.687L468.807 301.447L464.52 294.777L460.709 289.537L458.327 286.202V280.009L454.992 275.246L458.327 269.529V259.525V254.761V249.045V242.375L464.52 234.277L468.807 224.273L474.524 217.127Z" fill="#ECECEC" stroke="#ECECEC" stroke-width="2"/>
<path d="M712.716 396.723L703.664 406.727L694.613 411.968V424.353L690.326 433.405V442.932L694.613 448.173H703.664L708.905 442.932V433.405L715.098 418.161L717.956 406.727V396.723L715.098 391.959L712.716 396.723Z" fill="#ECECEC" stroke="#ECECEC" stroke-width="2"/>
<path d="M1049.52 524.394L1052.85 516.295H1060.48L1064.29 519.154L1060.48 524.394L1052.85 527.252L1049.52 524.394Z" fill="#ECECEC" stroke="#ECECEC" stroke-width="2"/>
<path d="M1003.31 478.661L991.399 483.901H975.679L969.009 487.712L961.863 491.523L958.529 487.712V483.901L961.863 473.421V459.129V444.362L966.627 435.787L983.777 425.783H991.399L1003.31 413.873L1006.64 409.586L1012.84 402.916L1022.84 399.582L1029.51 402.916L1032.84 398.152L1039.04 393.865L1050.47 390.53C1060.76 389.006 1059.84 393.389 1058.09 395.771L1052.85 402.916L1058.09 406.727L1070.48 413.873L1079.05 402.916V395.771L1084.29 388.148L1086.68 395.771L1092.87 402.916V415.779L1097.16 421.495L1104.3 435.787L1111.45 444.362V452.936L1107.64 468.657L1100.49 478.661L1092.87 483.901L1086.68 495.811L1079.05 502.004H1071.91L1068.57 505.339L1063.81 508.197L1058.09 505.339H1050.47L1044.75 502.004V495.811L1042.37 491.523L1037.61 483.901L1032.84 487.712L1027.13 478.661L1020.93 476.279H1015.69L1003.31 478.661Z" fill="#ECECEC" stroke="#ECECEC" stroke-width="2"/>
<path d="M1128.12 540.114H1117.64C1117.64 536.685 1121.45 532.334 1123.36 530.587L1135.27 524.394L1145.75 521.059L1154.8 514.866V521.059L1149.08 524.394L1145.75 530.587H1140.98L1135.27 536.303L1128.12 540.114Z" fill="#ECECEC" stroke="#ECECEC" stroke-width="2"/>
<path d="M1168.14 518.202H1161.94L1164.33 511.532V506.292L1171 503.434L1173.85 493.43L1176.71 500.575L1181 506.292L1173.85 511.532L1168.14 518.202Z" fill="#ECECEC" stroke="#ECECEC" stroke-width="2"/>
<path d="M298.263 566.316L311.125 573.461L301.597 575.843L295.881 573.461H289.212L291.41 566.316H289.212L276.826 561.075L270.633 551.071L262.534 539.638L265.869 535.351V529.158L262.534 522.965L255.865 514.39V505.815L253.483 482.949L250.148 462.464V443.409V425.783L240.62 414.826L228.711 407.204L221.089 396.723L213.467 384.337L206.797 368.617L201.557 366.235V355.278L206.797 350.991L201.557 344.798L206.797 334.794L213.467 324.313L216.801 319.549V312.88L213.467 301.447V298.112L216.801 301.447L221.089 298.112L225.853 292.396H231.093L235.857 286.203H240.62L241.995 291.15L246.337 288.585H253.483L257.77 292.396L265.392 294.778L274.444 292.396L280.16 294.778L291.117 308.116L295.881 312.88H303.503L314.46 316.215L319.224 324.313L322.558 331.459V337.176L328.275 340.51L333.515 344.798H340.184L343.519 347.18L350.188 350.991H360.193L368.291 355.278L377.342 360.518L382.582 362.9V368.617V376.715L374.96 389.101L368.291 396.723V407.204V421.972L360.193 435.787L353.523 438.169L343.519 443.409L336.373 450.078V456.748L333.515 469.61L325.417 482.949L319.224 488.665H313.507H308.267L311.125 493.905V501.528L304.932 505.815H298.263V514.39H289.212V519.63L293.023 522.965L289.212 531.54V535.351V539.638L293.023 545.355V551.071L289.212 556.788L293.023 561.075L291.41 566.316H298.263Z" fill="#ECECEC"/>
<path d="M311.125 573.461L298.263 566.316H289.212L276.826 561.075L270.633 551.071L262.534 539.638L265.869 535.351V529.158L262.534 522.965L255.865 514.39V505.815L253.483 482.949L250.148 462.464V443.409V425.783L240.62 414.826L228.711 407.204L221.089 396.723L213.467 384.337L206.797 368.617L201.557 366.235V355.278L206.797 350.991L201.557 344.798L206.797 334.794L213.467 324.313L216.801 319.549V312.88L213.467 301.447V298.112L216.801 301.447L221.089 298.112L225.853 292.396H231.093L235.857 286.203H240.62L243.002 294.778L240.62 301.447L235.857 294.778L246.337 288.585H253.483L257.77 292.396L265.392 294.778L274.444 292.396L280.16 294.778L291.117 308.116L295.881 312.88H303.503L314.46 316.215L319.224 324.313L322.558 331.459V337.176L328.275 340.51L333.515 344.798H340.184L343.519 347.18L350.188 350.991H360.193L368.291 355.278L377.342 360.518L382.582 362.9V368.617V376.715L374.96 389.101L368.291 396.723V407.204V421.972L360.193 435.787L353.523 438.169L343.519 443.409L336.373 450.078V456.748L333.515 469.61L325.417 482.949L319.224 488.665H313.507H308.267L311.125 493.905V501.528L304.932 505.815H298.263V514.39H289.212V519.63L293.023 522.965L289.212 531.54V535.351V539.638L293.023 545.355V551.071L289.212 556.788L293.023 561.075L289.212 573.461H295.881L301.597 575.843L311.125 573.461Z" stroke="#ECECEC" stroke-width="2"/>
<path d="M1108.11 374.81L1118.59 384.814L1115.26 388.148L1108.11 384.814L1100.01 377.668L1095.25 374.81H1090.01L1086.68 380.05L1077.15 377.668L1071.91 374.81H1067.14L1071.91 367.664L1067.14 363.377L1053.81 358.136L1046.66 355.754V350.991L1041.9 342.892H1053.81V346.703L1059.05 355.754L1063.81 350.991L1071.91 346.703L1080.48 350.991L1095.25 355.754L1105.25 363.377L1108.11 374.81Z" fill="#ECECEC" stroke="#ECECEC" stroke-width="2"/>
<path d="M973.297 320.978L963.769 328.124L954.241 332.888L956.147 343.845L960.911 351.467L973.297 356.231H982.824V351.467L989.97 341.463L992.828 337.652V330.982L989.97 325.266L992.828 317.167L989.97 312.403H982.824L973.297 320.978Z" fill="#ECECEC" stroke="#ECECEC" stroke-width="2"/>
<path d="M966.15 367.664L976.631 373.857L971.391 376.715L960.91 373.857H952.812H943.284L940.902 367.664H949.001H957.099H966.15Z" fill="#ECECEC" stroke="#ECECEC" stroke-width="2"/>
<path d="M941.379 352.896V360.042C941.379 365.759 934.709 364.965 931.374 363.853L924.705 356.707L918.512 343.369L908.984 329.554L900.886 321.932V315.262L916.607 321.932L921.37 329.554L931.374 336.699V341.463L941.379 352.896Z" fill="#ECECEC" stroke="#ECECEC" stroke-width="2"/>
<path d="M992.828 271.911L995.21 262.384C996.163 258.573 999.1 260.796 1000.45 262.384V271.911L1005.69 276.199L1011.41 285.25L1019.51 294.778L1022.84 303.829V314.309H1016.17L1011.41 309.069L1005.69 297.16L1000.45 285.25L992.828 271.911Z" fill="#ECECEC" stroke="#ECECEC" stroke-width="2"/>
<path d="M922.8 325.743L918.512 312.88L910.414 300.494V285.726L916.13 291.443V297.636L918.512 302.876L922.8 308.116L930.898 312.88L934.233 320.979V332.412H930.898L922.8 325.743Z" fill="#ECECEC" stroke="#ECECEC" stroke-width="2"/>
<path d="M881.832 250.474L877.544 242.375L862.776 244.757L859.442 254.285L851.82 259.525L837.528 272.864L835.146 280.486V295.254C834.003 304.4 827.683 302.876 824.666 300.97L816.091 283.821L805.611 259.525V247.616H799.418H792.748V239.993H785.603L777.504 228.56L772.264 232.848L758.925 228.56H747.016L739.87 222.844L723.196 220.938L715.574 211.887L710.334 207.599L706.999 211.887L712.716 218.556L715.574 228.56H723.196L728.437 235.23L737.011 228.56L741.775 232.848L751.779 239.993V247.616L744.157 259.525L734.153 264.289L723.196 270.482L712.716 276.199L704.617 283.821H694.613L689.85 276.199V267.624L684.609 259.525L675.558 250.474V242.375L661.267 225.702L656.979 214.269L651.739 218.556L646.022 202.836H654.597L656.979 191.402V180.922L648.881 183.78L638.4 180.922H626.967L620.774 168.536V164.249H615.058L609.341 168.536L612.199 175.205L609.341 180.922L602.672 177.587L605.054 172.824L596.955 168.536L593.62 156.15L585.045 150.91L572.66 142.335C567.324 137.381 568.848 142.811 570.278 146.146L576.471 153.292C581.393 156.944 590.476 164.249 587.427 164.249C584.379 164.249 584.569 171.553 585.045 175.205L576.471 164.249L563.132 153.292L556.463 148.528L544.553 153.292H537.884L533.596 160.914L523.592 168.536V177.587L511.683 180.922H500.726L492.151 175.205L495.486 153.292H515.017L519.305 148.528V138.524L511.683 129.949L523.592 127.567L533.596 121.851L546.935 111.37H552.175L556.463 107.083V98.0315L561.703 93.7441V99.937L567.896 98.0315V91.3622L563.132 88.0275L556.463 91.3622L549.317 88.0275V75.6415L570.278 59.9209L585.045 48.9641L596.955 42.2948H617.439L629.825 48.9641L648.881 51.346C654.978 56.3004 651.421 59.1269 648.881 59.9209H641.259L629.825 56.1099L641.259 65.6375H648.881L654.597 59.9209L661.267 56.1099L664.125 51.346L672.223 56.1099L684.609 51.346H700.806L717.48 48.9641H727.96L722.244 42.2948L724.626 37.5309H734.63L741.299 42.2948L751.303 37.5309L758.925 32.7671H769.406V27.5269L785.126 23.7158H795.13L800.37 19.9048H809.422L818.473 23.7158H831.812L835.146 27.5269L831.812 32.7671L849.438 35.149H853.249H861.824H869.922H885.166L902.316 42.2948H912.32H920.419L922.801 35.149L938.521 37.5309L957.1 42.2948H973.297H984.254L996.64 48.9641H1019.98L1024.27 46.1058H1035.7L1053.33 48.9641L1069.05 53.7279L1079.05 57.539H1090.01L1096.68 64.6847H1082.87L1075.72 59.9209L1069.05 64.6847L1079.05 69.4486V74.6888L1069.05 81.8345H1059.05C1049.14 84.5023 1051.11 88.9802 1053.33 90.8858L1061.43 94.2205L1063.81 106.606V119.469H1059.05L1046.66 106.606L1038.56 94.2205L1042.37 78.4998L1038.56 74.6888L1032.85 78.4998H1026.65H1019.98V86.5983H1008.55H991.4L984.254 90.8858L979.49 102.319L987.112 106.606H994.734L1005.21 110.894H1010.93L1019.98 119.469L1026.65 126.138V131.378L1029.51 140.906L1024.27 138.048L1019.98 131.378L1013.31 121.851H1010.93L1013.31 131.378V140.906L1008.55 152.339H1000.93L996.64 156.15L994.734 161.867V166.154L996.64 170.918L1005.21 177.111L1008.55 183.78L1005.21 189.021H996.64L994.734 180.446L984.254 173.3L979.49 166.154C973.393 169.584 971.233 167.583 970.915 166.154L965.199 161.867L957.1 170.918L965.199 177.111H970.915L979.49 180.446L968.533 187.591L979.49 197.595L984.254 204.741L987.112 214.745L984.254 227.608L979.49 237.135L968.533 242.375L957.1 244.757L950.907 250.474L944.714 244.757L938.521 249.045L935.663 256.667L944.714 267.624L950.907 278.104V290.014L944.714 295.254L940.427 300.97H935.663V295.254L927.565 290.014L918.037 283.821H914.702V290.014L909.938 283.821L906.127 272.864L902.316 267.624L897.552 270.482H892.789V264.289L889.454 256.667L881.832 250.474Z" fill="#ECECEC" stroke="#ECECEC" stroke-width="2"/>
<path d="M1016.65 200.93L1014.27 194.261L1015.69 189.973L1019.98 185.686H1025.7L1032.37 181.399L1039.04 173.776L1036.18 167.583L1030.94 157.579V151.386V144.241L1037.13 148.528L1045.71 151.386L1043.32 156.15H1037.13V163.296H1041.42L1045.71 169.965V175.206L1047.61 181.399V189.021H1039.04L1033.8 194.261L1028.08 193.308H1023.79L1019.98 191.403L1017.6 193.308L1021.41 197.596L1019.98 203.312L1016.65 200.93Z" fill="#ECECEC" stroke="#ECECEC" stroke-width="2"/>
<path d="M522.162 100.89L530.261 112.799L533.595 115.658L530.261 119.945L518.828 123.28H509.776L512.635 115.658V112.799L518.828 106.13L512.635 100.89V96.6022V91.8384H518.828L522.162 100.89Z" fill="#ECECEC" stroke="#ECECEC" stroke-width="2"/>
<path d="M495.961 107.56L503.584 104.225C509.681 101.557 508.347 105.337 506.918 107.56L503.584 114.706L495.961 118.517V107.56Z" fill="#ECECEC" stroke="#ECECEC" stroke-width="2"/>
<path d="M462.614 64.6843L473.095 61.3496H485.004L490.244 64.6843L479.764 70.8772H468.331L462.614 64.6843Z" fill="#ECECEC" stroke="#ECECEC" stroke-width="2"/>
<path d="M375.437 60.8742L380.201 53.2521C386.68 50.5844 386.711 45.1536 385.917 42.7717L380.201 32.2913L369.72 23.7164H361.622L353.523 20.3817V15.1415H369.72L380.201 9.90132L394.969 7.04303L418.311 9.90132L432.603 4.66111H460.233H479.765L491.198 9.90132L484.052 20.3817L479.765 28.4802L470.714 32.2913L463.568 36.5787L470.714 42.7717L463.568 46.5828L450.229 50.8702L440.701 53.2521L432.603 56.5868L418.311 60.8742L404.973 68.02L394.969 81.8351H385.917L375.437 74.2129V60.8742Z" fill="#ECECEC" stroke="#ECECEC" stroke-width="2"/>
<path d="M323.988 12.2828L314.937 20.3813L326.37 24.6688L335.421 20.3813L346.854 16.5703L367.815 12.2828L381.63 2.27881L356.858 5.1371H340.185V12.2828H335.421H323.988Z" fill="#ECECEC" stroke="#ECECEC" stroke-width="2"/>
<path d="M301.598 33.2437H292.07L282.542 38.4839L292.07 44.2004H301.598H312.555L321.129 54.6809V58.0155H312.555L306.838 64.6849L312.555 71.8306L323.988 75.1653L331.133 68.496V61.3502H334.945C345.616 64.018 345.425 60.2387 343.996 58.0155L338.279 50.3934L331.133 41.8185L323.988 38.4839H318.271L312.555 35.6256L301.598 33.2437Z" fill="#ECECEC" stroke="#ECECEC" stroke-width="2"/>
<path d="M200.127 29.9087L192.982 33.2434L184.407 36.578L187.265 41.8183L192.982 36.578H202.509L206.32 41.8183L200.127 49.4404H208.702H214.419H222.041L230.616 47.5348L240.62 46.1057V41.8183V36.578H237.285H232.998L228.71 33.2434L223.946 36.578L217.754 33.2434L208.702 29.9087H200.127Z" fill="#ECECEC" stroke="#ECECEC" stroke-width="2"/>
<path d="M334.945 125.661L343.996 131.378L334.945 134.236H325.893L321.606 131.378L325.893 128.043L334.945 119.945V125.661Z" fill="#ECECEC" stroke="#ECECEC" stroke-width="2"/>
<path d="M259.676 161.391L243.002 174.253L240.62 179.017V189.497L228.711 193.785L221.089 199.978L212.037 206.171L215.848 217.128V225.703L209.656 229.037L206.797 225.703V213.317L198.222 209.029L191.077 206.171L180.12 213.317L166.781 209.029L151.537 217.128L148.202 225.703L142.962 243.329L148.202 254.286L155.824 260.955L166.781 257.144L173.45 248.093C182.978 245.044 181.867 249.363 180.12 251.904L175.832 267.624L180.12 270.959H191.077V289.061L200.604 300.018H209.656L200.604 306.211L188.695 300.018L180.12 289.061L175.832 280.963H171.069L158.683 276.199L151.537 267.624H132.482L111.521 254.286V243.329L102.469 229.037L94.8473 217.128V206.171H90.0835V213.317L94.8473 222.368V238.089L90.0835 232.372L85.7961 222.368L82.4614 209.029V199.978L74.8393 189.497L71.5046 164.726L82.4614 149.958C86.59 144.718 95.8001 133.856 99.6112 132.332C104.375 130.426 98.6584 121.375 90.0835 121.375C90.0835 115.277 93.2594 102.319 94.8473 96.6029L90.0835 90.4099L80.0795 83.2642L66.7408 78.024L51.4965 83.2642H46.7327L30.5357 90.4099L1 101.843L17.6734 88.028L11.4804 83.2642L17.6734 80.8823L21.9608 73.2602H30.5357L37.6815 68.4963C32.7271 66.2097 33.394 62.7798 34.3468 61.3506H43.8744L51.4965 57.5395C49.2099 51.4419 54.6724 49.9174 57.6895 49.9174L63.8825 47.0591L82.4614 42.7717H96.2765L129.147 47.0591L142.486 52.2993L162.017 47.0591H174.403H189.647L202.986 54.6813L215.848 57.5395V54.6813L227.282 52.2993L233.475 54.6813L243.002 52.2993H250.148V47.0591H254.912V52.2993L262.058 47.0591V42.7717L270.156 39.437L272.538 47.0591L276.825 52.2993L288.259 47.0591H295.404V52.2993L288.259 57.5395H276.825L274.185 61.8776L284.448 65.1617L281.589 71.3546L270.156 68.4963L274.185 61.8776L272.538 61.3506L265.869 65.1617L254.912 68.4963L246.337 73.2602L233.475 78.024L227.282 88.028L236.809 94.6974L243.002 99.4612L253.006 101.843L250.148 113.276L254.912 118.993L262.058 113.276V107.083L270.156 103.272L279.684 94.6974V88.028L284.448 78.024L292.546 73.2602L308.267 78.024V83.2642L313.031 90.4099L325.893 83.2642L328.751 99.4612L333.991 107.083L341.137 109.465L333.991 116.135L323.511 121.375H313.031H299.692L295.404 128.997H303.503L299.692 139.001L310.649 143.765L299.692 149.958H292.546V143.765H288.259L276.825 149.958L270.156 158.056L259.676 161.391Z" fill="#ECECEC"/>
<path d="M243.002 174.253L259.676 161.391L270.156 158.056L276.825 149.958L288.259 143.765H292.546V149.958H299.692L310.649 143.765L299.692 139.001L303.503 128.997H295.404L299.692 121.375H313.031H323.511L333.991 116.135L341.137 109.465L333.991 107.083L328.751 99.4612L325.893 83.2642L313.031 90.4099L308.267 83.2642V78.024L292.546 73.2602L284.448 78.024L279.684 88.028V94.6974L270.156 103.272L262.058 107.083V113.276L254.912 118.993L250.148 113.276L253.006 101.843L243.002 99.4612L236.809 94.6974L227.282 88.028L233.475 78.024L246.337 73.2602L254.912 68.4963L265.869 65.1617L272.538 61.3506L284.448 65.1617L281.589 71.3546L270.156 68.4963L276.825 57.5395H288.259L295.404 52.2993V47.0591H288.259L276.825 52.2993L272.538 47.0591L270.156 39.437L262.058 42.7717V47.0591L254.912 52.2993V47.0591H250.148V52.2993H243.002L233.475 54.6813L227.282 52.2993L215.848 54.6813V57.5395L202.986 54.6813L189.647 47.0591H174.403H162.017L142.486 52.2993L129.147 47.0591L96.2765 42.7717H82.4614L63.8825 47.0591L57.6895 49.9174C54.6724 49.9174 49.2099 51.4419 51.4965 57.5395L43.8744 61.3506H34.3468C33.394 62.7798 32.7271 66.2097 37.6815 68.4963L30.5357 73.2602H21.9608L17.6734 80.8823L11.4804 83.2642L17.6734 88.028L1 101.843L30.5357 90.4099L46.7327 83.2642H51.4965L66.7408 78.024L80.0795 83.2642L90.0835 90.4099L94.8473 96.6029C93.2594 102.32 90.0835 115.277 90.0835 121.375C98.6584 121.375 104.375 130.426 99.6112 132.332C95.8001 133.856 86.59 144.718 82.4614 149.958L71.5046 164.726L74.8393 189.497L82.4614 199.978V209.029L85.7961 222.368L90.0835 232.372L94.8473 238.089V222.368L90.0835 213.317V206.171H94.8473V217.128L102.469 229.037L111.521 243.329V254.286L132.482 267.624H151.537L158.683 276.199L171.069 280.963H175.832L180.12 289.061L188.695 300.018L200.604 306.211L209.656 300.018H200.604L191.077 289.061V270.959H180.12L175.832 267.624L180.12 251.904C181.867 249.363 182.978 245.044 173.45 248.093L166.781 257.144L155.824 260.955L148.202 254.286L142.962 243.329L148.202 225.703L151.537 217.128L166.781 209.029L180.12 213.317L191.077 206.171L198.222 209.029L206.797 213.317V225.703L209.656 229.037L215.848 225.703V217.128L212.037 206.171L221.089 199.978L228.711 193.785L240.62 189.497V179.017L243.002 174.253Z" stroke="#ECECEC" stroke-width="2"/>
<path d="M246.337 260.478H232.998L236.809 252.855H241.573L254.912 255.714L246.337 260.478Z" fill="#ECECEC" stroke="#ECECEC" stroke-width="2"/>
<path d="M213.467 239.041H197.746L202.034 242.376L210.132 246.663L217.278 251.903L232.046 249.521L227.282 246.663L213.467 239.041Z" fill="#ECECEC" stroke="#ECECEC" stroke-width="2"/>
<path d="M206.797 139H220.136L211.561 146.146L206.797 156.627L209.179 160.914L214.896 156.627L220.136 143.764H228.711V151.386L238.715 146.146V139H233.475L228.711 136.142L223.947 130.902H211.561L206.797 139Z" fill="#ECECEC" stroke="#ECECEC" stroke-width="2"/>
<path d="M290.165 26.5741L313.507 30.8615L318.748 26.5741H304.932L296.358 22.2866L290.165 26.5741Z" fill="#ECECEC" stroke="#ECECEC" stroke-width="2"/>
<path d="M315.889 7.99561L312.554 14.665H305.885L299.215 12.283L305.885 7.99561H315.889Z" fill="#ECECEC" stroke="#ECECEC" stroke-width="2"/>
<path d="M578.852 101.366L583.14 93.2675L585.998 87.5509L588.38 83.2635L583.14 77.5469V72.3067L593.144 68.972L599.337 59.4444L606.006 64.6846L596.955 72.3067L599.337 80.8816H615.534L621.727 83.2635L615.534 87.5509H606.006V93.2675H599.337V101.366L593.144 105.653H588.38L578.852 108.988L574.089 105.653H564.084L570.277 101.366H578.852Z" fill="#ECECEC" stroke="#ECECEC" stroke-width="2"/>
<path d="M992.828 352.42L997.116 341.463C994.829 338.033 998.068 334.635 999.974 333.365C999.974 331.078 1012.36 332.412 1018.55 333.365C1018.55 340.987 1009.66 338.446 1005.21 336.223L1001.88 339.558L1003.31 344.321H1010.45L1005.21 348.609L1008.07 355.278L1005.21 358.613L1001.88 352.42L999.974 355.278V363.853L992.828 362.424V352.42Z" fill="#ECECEC" stroke="#ECECEC" stroke-width="2"/>
</svg>
